<?xml version="1.0" encoding="UTF-8" standalone="no"?>
<!DOCTYPE svg PUBLIC "-//W3C//DTD SVG 1.1//EN" "http://www.w3.org/Graphics/SVG/1.1/DTD/svg11.dtd">
<svg id="svg-tie" version="1.1" xmlns="http://www.w3.org/2000/svg" xmlns:xlink="http://www.w3.org/1999/xlink" preserveAspectRatio="xMidYMid meet" viewBox="0 0 640 640" width="640" height="640"><defs><path d="M301.96 3C283.21 4.24 264.11 5.08 246.12 8.97C241.81 10.13 236.19 11.1 234.21 14.07C234.34 20.83 238.45 27.24 241.71 33.6C251.34 50.59 264.03 66.75 275.81 83.14C279.52 88.47 283.92 93.75 287.22 99.14C277.27 173.59 267.1 248.01 256.53 322.4C246.02 395.22 235.28 468.05 224.32 540.84C223.62 545.47 222.93 550.11 222.24 554.75C253.91 579.67 284.87 605.02 317.58 629.39C322.87 632.9 327.38 637.01 333.44 640C339.01 637.78 343.39 634.44 348.11 631.55C367.86 618.47 386.56 604.76 405.12 591.03C418.88 580.79 431.75 570.1 444.69 559.46C420.66 406.48 396.66 253.49 372.63 100.51C387.83 77.6 404.06 54.95 417.86 31.67C420.07 27.39 423.01 23.23 424.27 18.78C422.54 15.61 417.07 14.1 412.82 12.46C400.47 8.32 387.26 5.05 373.38 3.84C349.69 1.77 325.74 2.16 301.96 3" id="c4dGllzDgC"></path></defs><g><g><g><use xlink:href="#c4dGllzDgC" opacity="1" fill="#000000" fill-opacity="1"></use><g><use xlink:href="#c4dGllzDgC" opacity="1" fill-opacity="0" stroke="#000000" stroke-width="1" stroke-opacity="0"></use></g></g></g></g></svg>